<?xml version="1.0" encoding="utf-8"?>
<!-- Generator: Adobe Illustrator 26.1.0, SVG Export Plug-In . SVG Version: 6.00 Build 0)  -->
<svg version="1.1" id="Lager_1" xmlns="http://www.w3.org/2000/svg" xmlns:xlink="http://www.w3.org/1999/xlink" x="0px" y="0px"
	 viewBox="0 0 1366 768" style="enable-background:new 0 0 1366 768;" xml:space="preserve">
<style type="text/css">
	.st0{opacity:0.19;fill:#009245;}
	.st1{fill:none;stroke:#000000;stroke-miterlimit:10;}
	.st2{opacity:0.6;}
	.st3{fill:#009245;}
	.st4{opacity:0.18;fill:#009245;}
	.st5{opacity:0.5;fill:#009245;}
</style>
<circle class="st0" cx="683.14" cy="384.44" r="205.5"/>
<g>
	<g>
		<path d="M755.34,371.17c1.3,2.41-0.88-1.51-1.26-1.92c-0.52-0.56-1.16-1.06-1.81-1.44c-1.62-0.94-3.53-1.23-5.38-1.18
			c-4.2,0.11-8.45,1.7-12.41,2.92c-14.34,4.42-28.71,8.1-43.81,8.42c-12.99,0.27-26.07-1.03-38.08-6.33
			c-14.07-6.2-25.91-17.22-33.77-30.38c-11.72-19.62-13.91-43.74-8.25-65.64c7.44-28.79,28.82-50.38,58.05-56.5
			c29.77-6.23,59.19,6.26,72.84,32.85c3.53,6.87,13.88,0.81,10.36-6.06c-12.77-24.88-38.8-40.14-66.6-40.45
			c-31.8-0.36-62.23,16.48-77.48,44.64c-14.14,26.12-16.19,58.54-4.8,86c11.03,26.61,35.05,47.09,63.63,52.17
			c16.58,2.95,33.84,2.05,50.25-1.45c7.72-1.65,15.22-4,22.76-6.29c2.28-0.69,4.6-1.47,6.96-1.86c0.52-0.09,1.09,0.29,0.31-0.19
			c1.33,0.81-2.6-2.13-1.45-0.98c-0.79-0.78-2.12-3.46-0.41-0.28C748.64,384.03,759.01,377.97,755.34,371.17L755.34,371.17z"/>
	</g>
</g>
<g>
	<g>
		<path d="M753.12,517.08c-25.3-1.78-50.66-1.22-75.97-0.15c-12.5,0.53-25,1.16-37.5,1.66c-6.25,0.25-12.5,0.46-18.75,0.61
			c-3.29,0.08-6.58,0.14-9.87,0.18c-1.87,0.02-6.26,0.94-7.65-0.2c0,2.83,0,5.66,0,8.49c24.46-26.08,50.63-50.45,76.21-75.41
			c24.62-24.02,47.79-50.46,75.4-71.15c6.11-4.58,0.13-15-6.06-10.36c-27.98,20.96-51.5,47.29-76.42,71.66
			c-26.03,25.44-52.71,50.22-77.62,76.78c-2.04,2.18-2.59,6.39,0,8.49c4.81,3.9,9.11,3.78,15.15,3.72
			c6.91-0.07,13.82-0.24,20.72-0.48c13.49-0.45,26.97-1.13,40.46-1.73c27.29-1.21,54.62-2.03,81.89-0.11
			C760.83,529.63,760.8,517.62,753.12,517.08L753.12,517.08z"/>
	</g>
</g>
<path class="st1" d="M647.39,450.99"/>
<g class="st2">
	<g>
		<path class="st3" d="M662.38,504.68c30.3-29.15,57.63-60.97,87-91c5.4-5.53-3.07-14.02-8.49-8.49c-29.37,30.03-56.7,61.85-87,91
			C648.32,501.56,656.81,510.04,662.38,504.68L662.38,504.68z"/>
	</g>
</g>
<g class="st2">
	<g>
		<path class="st3" d="M614.6,554.55c39-4.63,78.29-6.13,117.53-4.43c7.72,0.33,7.71-11.67,0-12c-39.24-1.7-78.53-0.2-117.53,4.43
			C607.03,543.45,606.94,555.46,614.6,554.55L614.6,554.55z"/>
	</g>
</g>
<ellipse transform="matrix(1 -1.944779e-03 1.944779e-03 1 -0.5773 1.3339)" class="st4" cx="685.59" cy="297.52" rx="66.49" ry="66.5"/>
<ellipse class="st5" cx="681.24" cy="294.88" rx="61.78" ry="62"/>
</svg>
